<svg width="20" height="20" viewBox="0 0 20 20" fill="none" xmlns="http://www.w3.org/2000/svg">
<path d="M9.99997 9.44453C10.7691 9.44453 11.521 9.21645 12.1605 8.78913C12.8 8.36182 13.2985 7.75445 13.5928 7.04385C13.8872 6.33325 13.9642 5.55132 13.8141 4.79695C13.6641 4.04258 13.2937 3.34965 12.7498 2.80578C12.206 2.26191 11.513 1.89153 10.7587 1.74147C10.0043 1.59142 9.22236 1.66843 8.51176 1.96277C7.80116 2.25711 7.1938 2.75556 6.76648 3.39509C6.33916 4.03461 6.11108 4.78649 6.11108 5.55564C6.11108 6.58704 6.52081 7.57619 7.25011 8.3055C7.97942 9.03481 8.96858 9.44453 9.99997 9.44453ZM9.99997 2.77786C10.5494 2.77786 11.0864 2.94077 11.5432 3.246C12 3.55123 12.3561 3.98506 12.5663 4.49263C12.7765 5.0002 12.8316 5.55872 12.7244 6.09756C12.6172 6.63639 12.3526 7.13135 11.9642 7.51982C11.5757 7.9083 11.0807 8.17286 10.5419 8.28004C10.0031 8.38722 9.44454 8.33221 8.93696 8.12197C8.42939 7.91173 7.99556 7.55569 7.69034 7.09889C7.38511 6.64209 7.2222 6.10503 7.2222 5.55564C7.2222 4.81893 7.51485 4.11239 8.03579 3.59145C8.55672 3.07052 9.26326 2.77786 9.99997 2.77786Z" fill="white"/>
<path d="M16.9278 13.5389C16.0369 12.5973 14.9633 11.8472 13.7726 11.3346C12.5819 10.822 11.2992 10.5576 10.0028 10.5576C8.70649 10.5576 7.42377 10.822 6.23309 11.3346C5.0424 11.8472 3.96877 12.5973 3.07783 13.5389C2.88467 13.7453 2.77739 14.0174 2.77783 14.3001V17.2223C2.77783 17.517 2.8949 17.7996 3.10327 18.008C3.31164 18.2163 3.59426 18.3334 3.88894 18.3334H16.1112C16.4059 18.3334 16.6885 18.2163 16.8968 18.008C17.1052 17.7996 17.2223 17.517 17.2223 17.2223V14.3001C17.2242 14.0182 17.119 13.7461 16.9278 13.5389ZM16.1112 17.2223H3.88894V14.2945C4.67629 13.4654 5.62411 12.8052 6.6747 12.3541C7.72529 11.903 8.8567 11.6703 10.0001 11.6703C11.1434 11.6703 12.2748 11.903 13.3254 12.3541C14.376 12.8052 15.3238 13.4654 16.1112 14.2945V17.2223Z" fill="white"/>
</svg>
