<svg width="20" height="20" viewBox="0 0 20 20" fill="none" xmlns="http://www.w3.org/2000/svg">
<path d="M10 18.0166C9.87726 18.0162 9.75809 17.9752 9.66112 17.8999C6.57223 15.4999 4.44445 13.4333 2.95556 11.3944C1.05556 8.78883 0.62223 6.38328 1.66667 4.24439C2.41112 2.71661 4.55001 1.46661 7.05001 2.19439C8.24198 2.53869 9.28195 3.27705 10 4.28883C10.7181 3.27705 11.758 2.53869 12.95 2.19439C15.4445 1.47772 17.5889 2.71661 18.3333 4.24439C19.3778 6.38328 18.9445 8.78883 17.0445 11.3944C15.5556 13.4333 13.4278 15.4999 10.3389 17.8999C10.2419 17.9752 10.1228 18.0162 10 18.0166ZM5.62779 3.09994C5.03293 3.07679 4.44299 3.21608 3.92131 3.50286C3.39963 3.78964 2.9659 4.21308 2.66667 4.72772C1.80556 6.49439 2.19445 8.46105 3.85556 10.7333C5.62088 13.0103 7.68802 15.0363 10 16.7555C12.3116 15.038 14.3788 13.0139 16.1445 10.7388C17.8111 8.46105 18.1945 6.49439 17.3333 4.73328C16.7778 3.62217 15.1111 2.73883 13.2556 3.26105C12.6606 3.43689 12.109 3.73534 11.6363 4.13721C11.1637 4.53907 10.7804 5.03545 10.5111 5.59439C10.4693 5.69628 10.3981 5.78343 10.3066 5.84477C10.2151 5.9061 10.1074 5.93885 9.99723 5.93885C9.88708 5.93885 9.7794 5.9061 9.6879 5.84477C9.5964 5.78343 9.5252 5.69628 9.48334 5.59439C9.21611 5.03405 8.83347 4.53652 8.3605 4.1344C7.88754 3.73228 7.33493 3.43467 6.7389 3.26105C6.37777 3.15617 6.00383 3.10195 5.62779 3.09994Z" fill="white"/>
</svg>
