<svg width="151" height="34" viewBox="0 0 151 34" fill="none" xmlns="http://www.w3.org/2000/svg">
<path fill-rule="evenodd" clip-rule="evenodd" d="M91.3608 12.2349L94.1943 0.00680161C103.842 1.6463 99.4259 14.1159 95.4842 28.2007C91.3368 24.9664 91.7803 18.3992 91.3608 12.2349Z" fill="white"/>
<path fill-rule="evenodd" clip-rule="evenodd" d="M80.6885 17.7605L78.2794 28.1562C74.2023 24.9146 74.6293 18.4002 74.2158 12.2761L76.6317 1.85117C80.707 5.1021 80.2717 11.6302 80.6885 17.7605Z" fill="#4D4D4D"/>
<path fill-rule="evenodd" clip-rule="evenodd" d="M30.2822 9.98064C22.5072 10.3012 14.7325 10.6237 6.95738 10.945L5.50115 11.0052L5.41313 10.2938C5.04785 10.2473 4.55353 10.2429 4.14951 10.2772L4.18111 10.8999L1.78516 10.9273C1.51505 12.7935 1.51581 17.2094 1.78779 19.0723L4.18111 19.1L4.14951 19.7223C4.55353 19.7571 5.04785 19.7526 5.41313 19.7057L5.50115 18.994L6.95738 19.0542C14.7325 19.3763 22.5072 19.6983 30.2822 20.0189C30.6746 20.0215 31.0658 20.0607 31.451 20.1353C34.2695 20.68 36.7057 23.1938 38.8943 24.9042C41.6352 27.0452 44.2738 28.3652 47.8623 28.3682C50.312 28.37 52.7618 28.373 55.2115 28.3767H74.0003H75.9941C76.5219 28.9699 77.1373 29.5091 77.8562 29.9833C77.0124 30.0125 76.2322 29.9985 75.4994 29.9519C75.5284 29.9541 75.5555 29.9586 75.5852 29.9615C66.3437 29.9468 57.1026 29.932 47.8608 29.9172C38.461 29.9172 35.3375 21.5683 30.2465 21.5683C22.4616 21.247 14.6764 20.9242 6.8908 20.6021C6.77079 21.569 2.47998 21.4763 2.52324 20.6298L0.679541 20.6087C-0.229708 20.2427 -0.223313 9.69589 0.679541 9.39081L2.52324 9.36975C2.47998 8.52323 6.77079 8.43052 6.8908 9.39746C14.6764 9.07539 22.4616 8.75259 30.2465 8.43163C35.3375 8.43163 38.461 0.0827217 47.8608 0.0823517L59.9632 0.0631485C59.9406 0.0480061 59.9199 0.0313797 59.897 0.0166073C63.517 -0.109707 66.0781 0.492321 67.9019 1.61068H62.4829C62.4739 1.60994 62.4648 1.60883 62.4558 1.60809L61.0793 1.61068H55.2115V1.61991L47.8634 1.63136C44.2753 1.63727 41.636 2.95729 38.8947 5.09798C36.706 6.80765 34.2702 9.31953 31.4522 9.8643C31.0666 9.93854 30.6753 9.97806 30.2822 9.98064Z" fill="white"/>
<path fill-rule="evenodd" clip-rule="evenodd" d="M77.0457 0.0166855C97.8406 -0.709435 83.7561 22.5634 95.0049 29.9834C74.2099 30.7092 88.2941 7.43634 77.0457 0.0166855Z" fill="white"/>
<path fill-rule="evenodd" clip-rule="evenodd" d="M59.897 0.0166855C80.6919 -0.709435 66.6074 22.5634 77.8562 29.9834C57.0613 30.7092 71.1454 7.43634 59.897 0.0166855Z" fill="white"/>
<path fill-rule="evenodd" clip-rule="evenodd" d="M39.7639 23.8309C42.2565 25.7784 44.6111 26.9943 47.8632 26.9969C54.062 27.0017 60.2609 27.0054 66.4597 27.0054C65.1608 25.2421 64.5818 22.9678 64.2869 20.4718C37.2261 26.3553 47.361 15.0909 30.185 15.9226C23.4508 16.2487 15.3496 17.1111 8.14404 17.7309C15.535 18.0363 22.926 18.3433 30.3166 18.648C34.2343 18.686 36.9202 21.6093 39.7639 23.8309Z" fill="#B30000"/>
<path d="M105.46 30V13.98H109.21V30H105.46ZM107.35 11.34C106.65 11.34 106.07 11.12 105.61 10.68C105.17 10.24 104.95 9.71 104.95 9.09C104.95 8.45 105.17 7.92 105.61 7.5C106.07 7.06 106.65 6.84 107.35 6.84C108.05 6.84 108.62 7.05 109.06 7.47C109.52 7.87 109.75 8.38 109.75 9C109.75 9.66 109.53 10.22 109.09 10.68C108.65 11.12 108.07 11.34 107.35 11.34ZM123.222 13.8C124.502 13.8 125.642 14.05 126.642 14.55C127.662 15.05 128.462 15.82 129.042 16.86C129.622 17.88 129.912 19.2 129.912 20.82V30H126.162V21.3C126.162 19.88 125.822 18.82 125.142 18.12C124.482 17.42 123.552 17.07 122.352 17.07C121.472 17.07 120.692 17.25 120.012 17.61C119.332 17.97 118.802 18.51 118.422 19.23C118.062 19.93 117.882 20.82 117.882 21.9V30H114.132V13.98H117.702V18.3L117.072 16.98C117.632 15.96 118.442 15.18 119.502 14.64C120.582 14.08 121.822 13.8 123.222 13.8ZM142.228 30.21C140.448 30.21 138.888 29.86 137.548 29.16C136.228 28.44 135.198 27.46 134.458 26.22C133.738 24.98 133.378 23.57 133.378 21.99C133.378 20.39 133.728 18.98 134.428 17.76C135.148 16.52 136.128 15.55 137.368 14.85C138.628 14.15 140.058 13.8 141.658 13.8C143.218 13.8 144.608 14.14 145.828 14.82C147.048 15.5 148.008 16.46 148.708 17.7C149.408 18.94 149.758 20.4 149.758 22.08C149.758 22.24 149.748 22.42 149.728 22.62C149.728 22.82 149.718 23.01 149.698 23.19H136.348V20.7H147.718L146.248 21.48C146.268 20.56 146.078 19.75 145.678 19.05C145.278 18.35 144.728 17.8 144.028 17.4C143.348 17 142.558 16.8 141.658 16.8C140.738 16.8 139.928 17 139.228 17.4C138.548 17.8 138.008 18.36 137.608 19.08C137.228 19.78 137.038 20.61 137.038 21.57V22.17C137.038 23.13 137.258 23.98 137.698 24.72C138.138 25.46 138.758 26.03 139.558 26.43C140.358 26.83 141.278 27.03 142.318 27.03C143.218 27.03 144.028 26.89 144.748 26.61C145.468 26.33 146.108 25.89 146.668 25.29L148.678 27.6C147.958 28.44 147.048 29.09 145.948 29.55C144.868 29.99 143.628 30.21 142.228 30.21Z" fill="white"/>
</svg>
