<svg width="20" height="20" viewBox="0 0 20 20" fill="none" xmlns="http://www.w3.org/2000/svg">
<path d="M13.8888 6.66669V5.0278C13.8888 4.51711 13.7882 4.01141 13.5928 3.53959C13.3974 3.06777 13.1109 2.63906 12.7498 2.27795C12.3887 1.91683 11.96 1.63037 11.4882 1.43494C11.0163 1.2395 10.5106 1.13892 9.99995 1.13892C9.48925 1.13892 8.98355 1.2395 8.51173 1.43494C8.03991 1.63037 7.6112 1.91683 7.25009 2.27795C6.88897 2.63906 6.60252 3.06777 6.40708 3.53959C6.21165 4.01141 6.11106 4.51711 6.11106 5.0278V8.91669C6.11106 9.06404 6.16959 9.20534 6.27378 9.30953C6.37796 9.41372 6.51927 9.47225 6.66661 9.47225C6.81395 9.47225 6.95526 9.41372 7.05945 9.30953C7.16364 9.20534 7.22217 9.06404 7.22217 8.91669V7.7778H11.6666V6.66669H7.22217V5.0278C7.22217 4.29109 7.51483 3.58455 8.03576 3.06362C8.55669 2.54269 9.26323 2.25003 9.99995 2.25003C10.7367 2.25003 11.4432 2.54269 11.9641 3.06362C12.4851 3.58455 12.7777 4.29109 12.7777 5.0278V8.88892C12.7777 9.03626 12.8363 9.17757 12.9404 9.28175C13.0446 9.38594 13.1859 9.44447 13.3333 9.44447C13.4806 9.44447 13.6219 9.38594 13.7261 9.28175C13.8303 9.17757 13.8888 9.03626 13.8888 8.88892V7.7778H16.6666V17.7778H3.33328V7.7778H4.99995V6.66669H2.22217V17.8278C2.22217 18.1092 2.33396 18.3791 2.53296 18.5781C2.73196 18.7771 3.00185 18.8889 3.28328 18.8889H16.7166C16.998 18.8889 17.2679 18.7771 17.4669 18.5781C17.6659 18.3791 17.7777 18.1092 17.7777 17.8278V6.66669H13.8888Z" fill="white"/>
</svg>
